<mxfile host="app.diagrams.net" modified="2024-02-24T14:28:12.148Z" agent="Mozilla/5.0 (Windows NT 10.0; Win64; x64) AppleWebKit/537.36 (KHTML, like Gecko) Chrome/121.0.0.0 Safari/537.36" etag="mY3Sje9JzLNibPfnzXM5" version="23.1.6" type="github">
  <diagram name="Страница — 1" id="mYfWJSO-9VJa1qS9lIat">
    <mxGraphModel dx="1621" dy="1627" grid="1" gridSize="10" guides="1" tooltips="1" connect="1" arrows="1" fold="1" page="1" pageScale="1" pageWidth="827" pageHeight="1169" math="0" shadow="0">
      <root>
        <mxCell id="0" />
        <mxCell id="1" parent="0" />
        <mxCell id="ojwP3Ahwnbp5ZtwQttB2-1" value="&lt;div style=&quot;box-sizing:border-box;width:100%;background:#e4e4e4;padding:2px;&quot;&gt;&amp;nbsp;Product&lt;/div&gt;&lt;table style=&quot;width:100%;font-size:1em;&quot; cellpadding=&quot;2&quot; cellspacing=&quot;0&quot;&gt;&lt;tbody&gt;&lt;tr&gt;&lt;td&gt;Product_ID&lt;br&gt;ProductType_ID&lt;br&gt;MaterialType_ID&lt;br&gt;VendorCode&lt;br&gt;Name&lt;br&gt;Equipment&lt;br&gt;Price&lt;br&gt;Size&lt;br&gt;Description&lt;br&gt;Rest&lt;br&gt;Gender&lt;br&gt;Is_Deleted&lt;br&gt;&lt;/td&gt;&lt;td&gt;&lt;/td&gt;&lt;/tr&gt;&lt;/tbody&gt;&lt;/table&gt;" style="verticalAlign=top;align=left;overflow=fill;html=1;whiteSpace=wrap;strokeColor=default;gradientColor=none;fillColor=default;rounded=0;glass=0;shadow=0;noLabel=0;portConstraintRotation=0;connectable=1;allowArrows=1;snapToPoint=0;fixDash=0;container=0;dropTarget=0;recursiveResize=1;expand=1;metaEdit=0;movable=1;autosize=1;treeFolding=0;treeMoving=0;enumerate=0;comic=0;" parent="1" vertex="1">
          <mxGeometry x="-60" y="-105" width="120" height="210" as="geometry" />
        </mxCell>
        <mxCell id="ojwP3Ahwnbp5ZtwQttB2-2" value="&lt;div style=&quot;box-sizing:border-box;width:100%;background:#e4e4e4;padding:2px;&quot;&gt;&amp;nbsp;ProductPhoto&lt;/div&gt;&lt;table style=&quot;width:100%;font-size:1em;&quot; cellpadding=&quot;2&quot; cellspacing=&quot;0&quot;&gt;&lt;tbody&gt;&lt;tr&gt;&lt;td&gt;ProductPhoto_ID&lt;br&gt;Product_ID&lt;br&gt;Photo&lt;br&gt;Is_Cover&lt;br&gt;&lt;/td&gt;&lt;td&gt;&lt;/td&gt;&lt;/tr&gt;&lt;/tbody&gt;&lt;/table&gt;" style="verticalAlign=top;align=left;overflow=fill;html=1;whiteSpace=wrap;strokeColor=default;gradientColor=none;fillColor=default;rounded=0;glass=0;shadow=0;noLabel=0;portConstraintRotation=0;connectable=1;allowArrows=1;snapToPoint=0;fixDash=0;container=0;dropTarget=0;recursiveResize=1;expand=1;metaEdit=0;movable=1;autosize=1;treeFolding=0;treeMoving=0;enumerate=0;comic=0;" parent="1" vertex="1">
          <mxGeometry x="180" y="-105" width="120" height="90" as="geometry" />
        </mxCell>
        <mxCell id="ojwP3Ahwnbp5ZtwQttB2-3" value="&lt;div style=&quot;box-sizing:border-box;width:100%;background:#e4e4e4;padding:2px;&quot;&gt;&amp;nbsp;Insert&lt;/div&gt;&lt;table style=&quot;width:100%;font-size:1em;&quot; cellpadding=&quot;2&quot; cellspacing=&quot;0&quot;&gt;&lt;tbody&gt;&lt;tr&gt;&lt;td&gt;Insert_ID&lt;br&gt;StoneType_ID&lt;br&gt;Product_ID&lt;br&gt;Weight&lt;br&gt;&lt;/td&gt;&lt;td&gt;&lt;/td&gt;&lt;/tr&gt;&lt;/tbody&gt;&lt;/table&gt;" style="verticalAlign=top;align=left;overflow=fill;html=1;whiteSpace=wrap;strokeColor=default;gradientColor=none;fillColor=default;rounded=0;glass=0;shadow=0;noLabel=0;portConstraintRotation=0;connectable=1;allowArrows=1;snapToPoint=0;fixDash=0;container=0;dropTarget=0;recursiveResize=1;expand=1;metaEdit=0;movable=1;autosize=1;treeFolding=0;treeMoving=0;enumerate=0;comic=0;" parent="1" vertex="1">
          <mxGeometry x="185" y="15" width="110" height="90" as="geometry" />
        </mxCell>
        <mxCell id="ojwP3Ahwnbp5ZtwQttB2-4" value="&lt;div style=&quot;box-sizing:border-box;width:100%;background:#e4e4e4;padding:2px;&quot;&gt;&amp;nbsp;StoneType&lt;/div&gt;&lt;table style=&quot;width:100%;font-size:1em;&quot; cellpadding=&quot;2&quot; cellspacing=&quot;0&quot;&gt;&lt;tbody&gt;&lt;tr&gt;&lt;td&gt;StoneType_ID&lt;br&gt;Name&lt;br&gt;&lt;/td&gt;&lt;td&gt;&lt;/td&gt;&lt;/tr&gt;&lt;/tbody&gt;&lt;/table&gt;" style="verticalAlign=top;align=left;overflow=fill;html=1;whiteSpace=wrap;strokeColor=default;gradientColor=none;fillColor=default;rounded=0;glass=0;shadow=0;noLabel=0;portConstraintRotation=0;connectable=1;allowArrows=1;snapToPoint=0;fixDash=0;container=0;dropTarget=0;recursiveResize=1;expand=1;metaEdit=0;movable=1;autosize=1;treeFolding=0;treeMoving=0;enumerate=0;comic=0;" parent="1" vertex="1">
          <mxGeometry x="-55" y="150" width="110" height="60" as="geometry" />
        </mxCell>
        <mxCell id="ojwP3Ahwnbp5ZtwQttB2-5" value="&lt;div style=&quot;box-sizing:border-box;width:100%;background:#e4e4e4;padding:2px;&quot;&gt;ProductType&lt;/div&gt;&lt;table style=&quot;width:100%;font-size:1em;&quot; cellpadding=&quot;2&quot; cellspacing=&quot;0&quot;&gt;&lt;tbody&gt;&lt;tr&gt;&lt;td&gt;ProductType_ID&lt;br&gt;Name&lt;br&gt;&lt;/td&gt;&lt;td&gt;&lt;/td&gt;&lt;/tr&gt;&lt;/tbody&gt;&lt;/table&gt;" style="verticalAlign=top;align=left;overflow=fill;html=1;whiteSpace=wrap;strokeColor=default;gradientColor=none;fillColor=default;rounded=0;glass=0;shadow=0;noLabel=0;portConstraintRotation=0;connectable=1;allowArrows=1;snapToPoint=0;fixDash=0;container=0;dropTarget=0;recursiveResize=1;expand=1;metaEdit=0;movable=1;autosize=1;treeFolding=0;treeMoving=0;enumerate=0;comic=0;" parent="1" vertex="1">
          <mxGeometry x="-295" y="-90" width="120" height="60" as="geometry" />
        </mxCell>
        <mxCell id="ojwP3Ahwnbp5ZtwQttB2-6" value="&lt;div style=&quot;box-sizing:border-box;width:100%;background:#e4e4e4;padding:2px;&quot;&gt;&amp;nbsp;MaterialType&lt;/div&gt;&lt;table style=&quot;width:100%;font-size:1em;&quot; cellpadding=&quot;2&quot; cellspacing=&quot;0&quot;&gt;&lt;tbody&gt;&lt;tr&gt;&lt;td&gt;MaterialType_ID&lt;br&gt;Name&lt;br&gt;Fineness&lt;br&gt;&lt;/td&gt;&lt;td&gt;&lt;/td&gt;&lt;/tr&gt;&lt;/tbody&gt;&lt;/table&gt;" style="verticalAlign=top;align=left;overflow=fill;html=1;whiteSpace=wrap;strokeColor=default;gradientColor=none;fillColor=default;rounded=0;glass=0;shadow=0;noLabel=0;portConstraintRotation=0;connectable=1;allowArrows=1;snapToPoint=0;fixDash=0;container=0;dropTarget=0;recursiveResize=1;expand=1;metaEdit=0;movable=1;autosize=1;treeFolding=0;treeMoving=0;enumerate=0;comic=0;" parent="1" vertex="1">
          <mxGeometry x="-295" y="20" width="120" height="80" as="geometry" />
        </mxCell>
        <mxCell id="ojwP3Ahwnbp5ZtwQttB2-7" value="Relation" style="endArrow=open;html=1;endSize=12;startArrow=diamondThin;startSize=14;startFill=0;edgeStyle=orthogonalEdgeStyle;rounded=0;" parent="1" source="ojwP3Ahwnbp5ZtwQttB2-2" target="ojwP3Ahwnbp5ZtwQttB2-1" edge="1">
          <mxGeometry relative="1" as="geometry">
            <mxPoint x="165" y="-5.337586206896503" as="sourcePoint" />
            <mxPoint x="75" y="-5.340000000000003" as="targetPoint" />
            <Array as="points">
              <mxPoint x="90" y="-60" />
              <mxPoint x="90" y="-60" />
            </Array>
          </mxGeometry>
        </mxCell>
        <mxCell id="ojwP3Ahwnbp5ZtwQttB2-8" value="0..n" style="edgeLabel;resizable=0;html=1;align=left;verticalAlign=top;" parent="ojwP3Ahwnbp5ZtwQttB2-7" connectable="0" vertex="1">
          <mxGeometry x="-1" relative="1" as="geometry">
            <mxPoint x="-28" y="-30" as="offset" />
          </mxGeometry>
        </mxCell>
        <mxCell id="ojwP3Ahwnbp5ZtwQttB2-9" value="1" style="edgeLabel;resizable=0;html=1;align=right;verticalAlign=top;" parent="ojwP3Ahwnbp5ZtwQttB2-7" connectable="0" vertex="1">
          <mxGeometry x="1" relative="1" as="geometry">
            <mxPoint x="20" y="-30" as="offset" />
          </mxGeometry>
        </mxCell>
        <mxCell id="ojwP3Ahwnbp5ZtwQttB2-10" value="Relation" style="endArrow=open;html=1;endSize=12;startArrow=diamondThin;startSize=14;startFill=0;edgeStyle=orthogonalEdgeStyle;rounded=0;" parent="1" source="ojwP3Ahwnbp5ZtwQttB2-3" target="ojwP3Ahwnbp5ZtwQttB2-1" edge="1">
          <mxGeometry relative="1" as="geometry">
            <mxPoint x="205" y="85.0344827586207" as="sourcePoint" />
            <mxPoint x="40" y="60" as="targetPoint" />
            <Array as="points">
              <mxPoint x="90" y="60" />
              <mxPoint x="90" y="60" />
            </Array>
          </mxGeometry>
        </mxCell>
        <mxCell id="ojwP3Ahwnbp5ZtwQttB2-11" value="0..n" style="edgeLabel;resizable=0;html=1;align=left;verticalAlign=top;" parent="ojwP3Ahwnbp5ZtwQttB2-10" connectable="0" vertex="1">
          <mxGeometry x="-1" relative="1" as="geometry">
            <mxPoint x="-30" y="-30" as="offset" />
          </mxGeometry>
        </mxCell>
        <mxCell id="ojwP3Ahwnbp5ZtwQttB2-12" value="1" style="edgeLabel;resizable=0;html=1;align=right;verticalAlign=top;" parent="ojwP3Ahwnbp5ZtwQttB2-10" connectable="0" vertex="1">
          <mxGeometry x="1" relative="1" as="geometry">
            <mxPoint x="20" y="-30" as="offset" />
          </mxGeometry>
        </mxCell>
        <mxCell id="ojwP3Ahwnbp5ZtwQttB2-13" value="Relation" style="endArrow=open;html=1;endSize=12;startArrow=diamondThin;startSize=14;startFill=0;edgeStyle=orthogonalEdgeStyle;rounded=0;" parent="1" source="ojwP3Ahwnbp5ZtwQttB2-1" target="ojwP3Ahwnbp5ZtwQttB2-5" edge="1">
          <mxGeometry relative="1" as="geometry">
            <mxPoint x="-45" y="-55" as="sourcePoint" />
            <mxPoint x="-210" y="-80" as="targetPoint" />
            <Array as="points">
              <mxPoint x="-90" y="-60" />
              <mxPoint x="-90" y="-60" />
            </Array>
          </mxGeometry>
        </mxCell>
        <mxCell id="ojwP3Ahwnbp5ZtwQttB2-14" value="0..n" style="edgeLabel;resizable=0;html=1;align=left;verticalAlign=top;" parent="ojwP3Ahwnbp5ZtwQttB2-13" connectable="0" vertex="1">
          <mxGeometry x="-1" relative="1" as="geometry">
            <mxPoint x="-28" y="-32" as="offset" />
          </mxGeometry>
        </mxCell>
        <mxCell id="ojwP3Ahwnbp5ZtwQttB2-15" value="1" style="edgeLabel;resizable=0;html=1;align=right;verticalAlign=top;" parent="ojwP3Ahwnbp5ZtwQttB2-13" connectable="0" vertex="1">
          <mxGeometry x="1" relative="1" as="geometry">
            <mxPoint x="20" y="-30" as="offset" />
          </mxGeometry>
        </mxCell>
        <mxCell id="ojwP3Ahwnbp5ZtwQttB2-18" value="Relation" style="endArrow=open;html=1;endSize=12;startArrow=diamondThin;startSize=14;startFill=0;edgeStyle=orthogonalEdgeStyle;rounded=0;" parent="1" source="ojwP3Ahwnbp5ZtwQttB2-1" target="ojwP3Ahwnbp5ZtwQttB2-6" edge="1">
          <mxGeometry relative="1" as="geometry">
            <mxPoint x="-45" y="110" as="sourcePoint" />
            <mxPoint x="-175" y="110" as="targetPoint" />
            <Array as="points">
              <mxPoint x="-100" y="60" />
              <mxPoint x="-100" y="60" />
            </Array>
          </mxGeometry>
        </mxCell>
        <mxCell id="ojwP3Ahwnbp5ZtwQttB2-19" value="0..n" style="edgeLabel;resizable=0;html=1;align=left;verticalAlign=top;" parent="ojwP3Ahwnbp5ZtwQttB2-18" connectable="0" vertex="1">
          <mxGeometry x="-1" relative="1" as="geometry">
            <mxPoint x="-30" y="-30" as="offset" />
          </mxGeometry>
        </mxCell>
        <mxCell id="ojwP3Ahwnbp5ZtwQttB2-20" value="1" style="edgeLabel;resizable=0;html=1;align=right;verticalAlign=top;" parent="ojwP3Ahwnbp5ZtwQttB2-18" connectable="0" vertex="1">
          <mxGeometry x="1" relative="1" as="geometry">
            <mxPoint x="20" y="-30" as="offset" />
          </mxGeometry>
        </mxCell>
        <mxCell id="ojwP3Ahwnbp5ZtwQttB2-21" value="Relation" style="endArrow=open;html=1;endSize=12;startArrow=diamondThin;startSize=14;startFill=0;edgeStyle=orthogonalEdgeStyle;rounded=0;" parent="1" source="ojwP3Ahwnbp5ZtwQttB2-3" target="ojwP3Ahwnbp5ZtwQttB2-4" edge="1">
          <mxGeometry relative="1" as="geometry">
            <mxPoint x="360" y="230" as="sourcePoint" />
            <mxPoint x="245" y="190" as="targetPoint" />
            <Array as="points">
              <mxPoint x="240" y="180" />
            </Array>
          </mxGeometry>
        </mxCell>
        <mxCell id="ojwP3Ahwnbp5ZtwQttB2-22" value="0..n" style="edgeLabel;resizable=0;html=1;align=left;verticalAlign=top;" parent="ojwP3Ahwnbp5ZtwQttB2-21" connectable="0" vertex="1">
          <mxGeometry x="-1" relative="1" as="geometry">
            <mxPoint x="-33" y="-1" as="offset" />
          </mxGeometry>
        </mxCell>
        <mxCell id="ojwP3Ahwnbp5ZtwQttB2-23" value="1" style="edgeLabel;resizable=0;html=1;align=right;verticalAlign=top;" parent="ojwP3Ahwnbp5ZtwQttB2-21" connectable="0" vertex="1">
          <mxGeometry x="1" relative="1" as="geometry">
            <mxPoint x="15" y="-30" as="offset" />
          </mxGeometry>
        </mxCell>
        <mxCell id="kc2NY4PjeetK9-lZojOw-1" value="&lt;div style=&quot;box-sizing:border-box;width:100%;background:#e4e4e4;padding:2px;&quot;&gt;&amp;nbsp;Order&lt;/div&gt;&lt;table style=&quot;width:100%;font-size:1em;&quot; cellpadding=&quot;2&quot; cellspacing=&quot;0&quot;&gt;&lt;tbody&gt;&lt;tr&gt;&lt;td&gt;Order_ID&lt;br&gt;Created&lt;br&gt;Client_Name&lt;br&gt;Clietn_Address&lt;br&gt;Client_PhoneNumber&lt;br&gt;Description&lt;br&gt;Status&lt;br&gt;&lt;/td&gt;&lt;td&gt;&lt;/td&gt;&lt;/tr&gt;&lt;/tbody&gt;&lt;/table&gt;" style="verticalAlign=top;align=left;overflow=fill;html=1;whiteSpace=wrap;strokeColor=default;gradientColor=none;fillColor=default;rounded=0;glass=0;shadow=0;noLabel=0;portConstraintRotation=0;connectable=1;allowArrows=1;snapToPoint=0;fixDash=0;container=0;dropTarget=0;recursiveResize=1;expand=1;metaEdit=0;movable=1;autosize=1;treeFolding=0;treeMoving=0;enumerate=0;comic=0;" parent="1" vertex="1">
          <mxGeometry x="-310" y="-315" width="150" height="140" as="geometry" />
        </mxCell>
        <mxCell id="kc2NY4PjeetK9-lZojOw-2" value="&lt;div style=&quot;box-sizing:border-box;width:100%;background:#e4e4e4;padding:2px;&quot;&gt;&amp;nbsp;OrderProduct&lt;/div&gt;&lt;table style=&quot;width:100%;font-size:1em;&quot; cellpadding=&quot;2&quot; cellspacing=&quot;0&quot;&gt;&lt;tbody&gt;&lt;tr&gt;&lt;td&gt;OrderProduct_ID&lt;br&gt;Order_ID&lt;br&gt;Product_ID&lt;br&gt;Product_count&lt;/td&gt;&lt;td&gt;&lt;/td&gt;&lt;/tr&gt;&lt;/tbody&gt;&lt;/table&gt;" style="verticalAlign=top;align=left;overflow=fill;html=1;whiteSpace=wrap;strokeColor=default;gradientColor=none;fillColor=default;rounded=0;glass=0;shadow=0;noLabel=0;portConstraintRotation=0;connectable=1;allowArrows=1;snapToPoint=0;fixDash=0;container=0;dropTarget=0;recursiveResize=1;expand=1;metaEdit=0;movable=1;autosize=1;treeFolding=0;treeMoving=0;enumerate=0;comic=0;" parent="1" vertex="1">
          <mxGeometry x="-60" y="-290" width="120" height="90" as="geometry" />
        </mxCell>
        <mxCell id="kc2NY4PjeetK9-lZojOw-3" value="Relation" style="endArrow=open;html=1;endSize=12;startArrow=diamondThin;startSize=14;startFill=0;edgeStyle=orthogonalEdgeStyle;rounded=0;" parent="1" source="kc2NY4PjeetK9-lZojOw-2" target="kc2NY4PjeetK9-lZojOw-1" edge="1">
          <mxGeometry relative="1" as="geometry">
            <mxPoint x="-5" y="-100" as="sourcePoint" />
            <mxPoint x="-95" y="-100" as="targetPoint" />
            <Array as="points" />
          </mxGeometry>
        </mxCell>
        <mxCell id="kc2NY4PjeetK9-lZojOw-4" value="0..n" style="edgeLabel;resizable=0;html=1;align=left;verticalAlign=top;" parent="kc2NY4PjeetK9-lZojOw-3" connectable="0" vertex="1">
          <mxGeometry x="-1" relative="1" as="geometry">
            <mxPoint x="-25" y="-30" as="offset" />
          </mxGeometry>
        </mxCell>
        <mxCell id="kc2NY4PjeetK9-lZojOw-5" value="1" style="edgeLabel;resizable=0;html=1;align=right;verticalAlign=top;" parent="kc2NY4PjeetK9-lZojOw-3" connectable="0" vertex="1">
          <mxGeometry x="1" relative="1" as="geometry">
            <mxPoint x="20" y="-30" as="offset" />
          </mxGeometry>
        </mxCell>
        <mxCell id="kc2NY4PjeetK9-lZojOw-6" value="Relation" style="endArrow=open;html=1;endSize=12;startArrow=diamondThin;startSize=14;startFill=0;edgeStyle=orthogonalEdgeStyle;rounded=0;" parent="1" source="kc2NY4PjeetK9-lZojOw-2" target="ojwP3Ahwnbp5ZtwQttB2-1" edge="1">
          <mxGeometry relative="1" as="geometry">
            <mxPoint x="14.759999999999991" y="-135" as="sourcePoint" />
            <mxPoint x="14.759999999999991" y="-60" as="targetPoint" />
            <Array as="points" />
          </mxGeometry>
        </mxCell>
        <mxCell id="kc2NY4PjeetK9-lZojOw-7" value="0..n" style="edgeLabel;resizable=0;html=1;align=left;verticalAlign=top;" parent="kc2NY4PjeetK9-lZojOw-6" connectable="0" vertex="1">
          <mxGeometry x="-1" relative="1" as="geometry">
            <mxPoint x="-30" y="-5" as="offset" />
          </mxGeometry>
        </mxCell>
        <mxCell id="kc2NY4PjeetK9-lZojOw-8" value="1" style="edgeLabel;resizable=0;html=1;align=right;verticalAlign=top;" parent="kc2NY4PjeetK9-lZojOw-6" connectable="0" vertex="1">
          <mxGeometry x="1" relative="1" as="geometry">
            <mxPoint x="-10" y="-30" as="offset" />
          </mxGeometry>
        </mxCell>
      </root>
    </mxGraphModel>
  </diagram>
</mxfile>
